<svg xmlns:dc="http://purl.org/dc/elements/1.1/" xmlns:cc="http://creativecommons.org/ns#" xmlns:rdf="http://www.w3.org/1999/02/22-rdf-syntax-ns#" xmlns:svg="http://www.w3.org/2000/svg" xmlns="http://www.w3.org/2000/svg" viewBox="0 0 20 20" fill="none" width="200" height="200"><metadata><rdf:RDF><cc:Work><dc:format>image/svg+xml</dc:format><dc:type rdf:resource="http://purl.org/dc/dcmitype/StillImage"/><dc:title>Pixel Art</dc:title><dc:creator><cc:Agent><dc:title>Plastic Jam</dc:title></cc:Agent></dc:creator><cc:license rdf:resource="https://github.com/dicebear/dicebear/blob/main/packages/%40dicebear/pixel-art/LICENSE"/></cc:Work></rdf:RDF></metadata><mask id="avatarsRadiusMask"><rect width="20" height="20" rx="0" ry="0" x="0" y="0" fill="#fff"/></mask><g mask="url(#avatarsRadiusMask)"><rect fill="#550ded" width="20" height="20" x="0" y="0"/><path d="M6 4V3h8v1h1v1h1v3h1v3h-1v2h-1v1h-1v1h-2v1h4v1h1v3H3v-3h1v-1h4v-1H6v-1H5v-1H4v-2H3V8h1V5h1V4h1Z" fill="rgba(224, 182, 135, 1)"/><path d="M6 3v1H5v1H4v3H3v3h1v2h1v1h1v1h8v-1h1v-1h1v-2h1V8h-1V5h-1V4h-1V3H6Z" fill="#fff" fill-opacity=".1"/><g/><g><g fill-rule="evenodd" clip-rule="evenodd"><path d="M5 9V7h3v2H5Zm7-2h3v2h-3V7Z" fill="#fff"/><path d="M7 8v1h1V8H7Zm7 0h1v1h-1V8Z" fill="#000"/></g></g><g><g fill-rule="evenodd" clip-rule="evenodd"><path d="M7 5h1v1h1v1H8V6H7V5Zm6 0v1h-1v1h-1V6h1V5h1Z" fill="rgba(202, 177, 136, 1)"/><path d="M7 5h1v1h1v1H8V6H7V5Zm6 0v1h-1v1h-1V6h1V5h1Z" fill="#000" fill-opacity=".1"/></g></g><g><path d="M8 12h4v1H8v-1Z" fill="rgba(201, 130, 118, 1)"/></g><g><path d="M2 15h4v-1H5v-1H4V6h2V5h2V4h1V3h4v1h1v1h1v1h1v7h-1v1h-1v1h4V4h-1V3h-1V2h-1V1H5v1H4v1H3v1H2v11Z" fill="rgba(202, 177, 136, 1)"/></g><g/><g><path d="M3 8V7h1V6h2v1h1V6h2v1h2V6h2v1h1V6h2v1h1v1h-1v1h-1v1h-1v1h-1v-1h-1V9h-1V8H9v1H8v1H7v1H6v-1H5V9H4V8H3Z" fill="rgba(25, 25, 25, 1)"/><path fill-rule="evenodd" clip-rule="evenodd" d="M3 7v1h1V7h1V6H4v1H3Zm5-1v1h1v1h2V7h1V6h-1v1H9V6H8Zm7 0v1h1v1h1V7h-1V6h-1Z" fill="#fff" fill-opacity=".2"/></g><g/><g><path d="M5 16H4v1H3v3h14v-3h-1v-1h-3v1H7v-1H5Z" fill="rgba(255, 238, 173, 1)"/><path d="M10 20v-1h3v1h-3Z" fill="#fff" fill-opacity=".5"/><path fill-rule="evenodd" clip-rule="evenodd" d="M5 16H4v1H3v3h1v-1h1v-3Zm1 0h1v1h6v-1h1v2H6v-2Zm9 0h1v1h1v3h-1v-1h-1v-3Z" fill="#fff" fill-opacity=".8"/></g></g></svg>